<?xml version="1.0"?>
<svg width="60" height="60" xmlns="http://www.w3.org/2000/svg" xmlns:svg="http://www.w3.org/2000/svg">
 <!-- Created with SVG-edit - https://github.com/SVG-Edit/svgedit-->
 <g class="layer">
  <title>Layer 1</title>
  <g id="svg_1">
   <path d="m54.73,43.69c0.39,-0.68 0.64,-1.44 0.64,-2.13l0,-23.87c0,-0.69 -0.24,-1.45 -0.64,-2.13l-24.36,14.07l24.36,14.07z" fill="#00599C" id="svg_2"/>
   <path d="m32.53,57.24l20.67,-11.93c0.59,-0.34 1.14,-0.94 1.53,-1.62l-24.36,-14.07l-24.36,14.07c0.39,0.68 0.93,1.27 1.53,1.62l20.67,11.93c1.19,0.69 3.14,0.69 4.33,0z" fill="#004482" id="svg_3"/>
   <path d="m54.73,15.55c-0.39,-0.68 -0.93,-1.27 -1.53,-1.62l-20.67,-11.93c-1.19,-0.69 -3.14,-0.69 -4.33,0l-20.67,11.93c-1.19,0.69 -2.17,2.37 -2.17,3.75l0,23.87c0,0.69 0.24,1.45 0.64,2.13l24.36,-14.07l24.36,-14.07z" fill="#659AD2" id="svg_4"/>
   <path d="m30.37,46.29c-9.19,0 -16.67,-7.48 -16.67,-16.67s7.48,-16.67 16.67,-16.67c5.93,0 11.46,3.19 14.43,8.33l-7.21,4.17c-1.49,-2.57 -4.25,-4.17 -7.22,-4.17c-4.59,0 -8.33,3.74 -8.33,8.33c0,4.59 3.74,8.33 8.33,8.33c2.97,0 5.73,-1.6 7.22,-4.17l7.21,4.17c-2.97,5.14 -8.5,8.33 -14.43,8.33z" fill="#FFF" id="svg_5"/>
   <path d="m45.18,26.84l-1.85,0l0,1.85l-1.85,0l0,1.85l1.85,0l0,1.85l1.85,0l0,-1.85l1.85,0l0,-1.85l-1.85,0l0,-1.85zm6.94,0l-1.85,0l0,1.85l-1.85,0l0,1.85l1.85,0l0,1.85l1.85,0l0,-1.85l1.85,0l0,-1.85l-1.85,0l0,-1.85z" fill="#FFF" id="svg_6"/>
  </g>
 </g>
</svg>