<?xml version="1.0" encoding="UTF-8"?>
<svg version="1.1" xmlns="http://www.w3.org/2000/svg" width="2048" height="2048">
<path d="M0 0 C2.38864159 -0.00134829 4.77728297 -0.00313311 7.16592395 -0.00531223 C12.35513563 -0.00904414 17.54433818 -0.00970265 22.73355038 -0.00760629 C30.50220585 -0.00448518 38.2708522 -0.00715482 46.03950701 -0.010905 C59.28335264 -0.01712738 72.527195 -0.01861279 85.77104187 -0.01748753 C99.18727473 -0.01636198 112.60350481 -0.01740095 126.01973724 -0.02105999 C126.86804938 -0.02128964 127.71636151 -0.0215193 128.59038007 -0.02175591 C132.04561852 -0.02269758 135.50085696 -0.02365327 138.95609539 -0.0246271 C174.97929416 -0.03476499 211.00249137 -0.03783286 247.0256914 -0.03841921 C250.90187495 -0.03848396 254.77805849 -0.0385519 258.65424204 -0.03862262 C259.61616495 -0.03863962 260.57808787 -0.03865663 261.56915996 -0.03867415 C282.89808751 -0.03908284 304.22701476 -0.04127353 325.55594216 -0.04377846 C334.34232158 -0.04480685 343.128701 -0.04579689 351.91508043 -0.04679471 C353.37138156 -0.0469606 353.37138156 -0.0469606 354.85710291 -0.04712983 C410.48632905 -0.05345316 466.11555498 -0.05757904 521.74478149 -0.05712128 C523.82617266 -0.0571055 525.90756382 -0.05708976 527.98895499 -0.05707407 C537.38595276 -0.05700069 546.78295054 -0.05691252 556.17994831 -0.05682018 C560.37017587 -0.05677906 564.56040344 -0.05673891 568.750631 -0.05669887 C570.8479149 -0.05667848 572.94519881 -0.05665746 575.04248272 -0.05663581 C641.34039875 -0.05595578 707.63830945 -0.06326954 773.93622398 -0.07717609 C790.63668695 -0.08067726 807.33714991 -0.08414679 824.03761292 -0.08744049 C825.5801924 -0.0877448 825.5801924 -0.0877448 827.15393511 -0.08805526 C858.86492576 -0.09427315 890.57591597 -0.09803639 922.2869072 -0.09929848 C923.28295468 -0.09933843 924.27900216 -0.09937838 925.3052329 -0.09941954 C947.17420341 -0.10027294 969.0431739 -0.10053397 990.91214443 -0.10024916 C998.73795405 -0.10015268 1006.56376367 -0.10010064 1014.38957328 -0.10007043 C1016.33635615 -0.10006252 1018.28313902 -0.10005232 1020.22992189 -0.10003981 C1051.21186539 -0.0998637 1082.1938043 -0.10555278 1113.17574649 -0.11419363 C1144.39493622 -0.12285635 1175.61411962 -0.12502391 1206.83331005 -0.1184323 C1211.15495739 -0.11752011 1215.47660474 -0.11667681 1219.79825211 -0.11587429 C1220.64534789 -0.1157142 1221.49244368 -0.11555412 1222.36520904 -0.11538918 C1235.7347148 -0.11304354 1249.10420955 -0.11737665 1262.47371324 -0.12454548 C1275.64591671 -0.13146692 1288.81810405 -0.13115697 1301.99030719 -0.12335334 C1309.02561306 -0.11937794 1316.06088334 -0.1184647 1323.09618635 -0.12681069 C1389.32094943 -0.20124609 1452.19956812 4.81265934 1512.32880211 35.12863445 C1513.23082359 35.57561687 1514.13284508 36.0225993 1515.06220055 36.48312664 C1542.45781579 50.10736924 1566.78266859 67.48398208 1589.32880211 88.12863445 C1590.28786461 88.99488445 1591.24692711 89.86113445 1592.23505211 90.75363445 C1601.88900114 99.49099014 1611.16490948 108.38987069 1619.29364586 118.59738445 C1621.01710818 120.74096138 1622.7911345 122.7831792 1624.64130211 124.81613445 C1635.26339081 136.90671469 1644.04064452 150.37483758 1652.32880211 164.12863445 C1652.91758141 165.10123211 1652.91758141 165.10123211 1653.51825523 166.0934782 C1665.2278076 185.63005058 1674.90506064 206.60978689 1682.32880211 228.12863445 C1682.59741051 228.90013836 1682.86601891 229.67164227 1683.14276695 230.46652508 C1689.19782709 248.08260379 1693.53075098 266.2612716 1696.57880211 284.62863445 C1696.80527428 285.95725506 1696.80527428 285.95725506 1697.03632164 287.31271648 C1700.10924726 307.07020779 1700.62500615 327.0633292 1700.58048439 347.0177269 C1700.58257661 349.42890689 1700.5855435 351.84008626 1700.58929312 354.25126424 C1700.5954148 359.46190018 1700.59547039 364.67249797 1700.58992603 369.883133 C1700.58166381 377.68362502 1700.5851245 385.48408362 1700.59069132 393.28457649 C1700.59984808 406.58596415 1700.59961252 419.88733646 1700.59412956 433.18872547 C1700.58861283 446.65438936 1700.58747775 460.12004316 1700.59160423 473.58570766 C1700.59186258 474.43854056 1700.59212092 475.29137345 1700.5923871 476.17004976 C1700.59345373 479.64392202 1700.59455115 483.11779428 1700.59568765 486.59166652 C1700.60624791 518.89371544 1700.60699188 551.19575761 1700.60139275 583.4978075 C1700.60122716 584.45358677 1700.60106156 585.40936603 1700.60089096 586.39410831 C1700.6007251 587.35142899 1700.60055924 588.30874968 1700.60038835 589.29508008 C1700.59533734 618.48773173 1700.59404136 647.68038058 1700.59643364 676.87303257 C1700.5965886 678.82966929 1700.59674291 680.78630601 1700.59689658 682.74294273 C1700.59751754 690.60630327 1700.59815488 698.46966381 1700.59881611 706.33302434 C1700.60064991 728.312799 1700.60179127 750.29257367 1700.60238838 772.2723484 C1700.60241567 773.27316166 1700.60244297 774.27397491 1700.60247108 775.30511583 C1700.60328935 807.18393695 1700.60103736 839.0627571 1700.59668922 870.94157791 C1700.59654873 871.97517737 1700.59640823 873.00877682 1700.59626347 874.07369747 C1700.59397371 890.85754982 1700.59153472 907.64140214 1700.58908313 924.42525446 C1700.57937046 990.99003942 1700.57982196 1057.55481633 1700.5895443 1124.11960125 C1700.59198677 1140.89627901 1700.59440891 1157.67295677 1700.59668922 1174.44963455 C1700.59690057 1175.99923595 1700.59690057 1175.99923595 1700.59711618 1177.58014243 C1700.60142991 1209.42733296 1700.60325685 1241.27452282 1700.60238838 1273.12171364 C1700.60234763 1274.62180397 1700.60234763 1274.62180397 1700.60230605 1276.15219915 C1700.60168104 1298.1071437 1700.60041365 1320.06208818 1700.59856738 1342.01703265 C1700.59790912 1349.87295027 1700.59728296 1357.72886789 1700.59666595 1365.58478551 C1700.59651118 1367.53904645 1700.59635372 1369.49330739 1700.59619356 1371.44756834 C1700.59380847 1400.63144841 1700.59583518 1429.81532534 1700.60089096 1458.99920502 C1700.60113934 1460.43299811 1700.60113934 1460.43299811 1700.60139275 1461.89575672 C1700.60155811 1462.84984737 1700.60172348 1463.80393801 1700.60189385 1464.78694049 C1700.60741546 1496.99673302 1700.60537057 1529.20651746 1700.59483126 1561.41630883 C1700.5937266 1564.87852664 1700.59265319 1568.34074447 1700.59160423 1571.8029623 C1700.59134382 1572.65262234 1700.59108341 1573.50228238 1700.5908151 1574.37768969 C1700.58687791 1587.80460753 1700.58960869 1601.23151526 1700.59514224 1614.65843217 C1700.60044663 1627.87661622 1700.59855058 1641.09478331 1700.58911407 1654.31296521 C1700.58379972 1662.05116601 1700.58384785 1669.78932016 1700.59207726 1677.52751867 C1700.59758604 1683.2906996 1700.59253401 1689.05383456 1700.58356471 1694.81700938 C1700.58156518 1697.12036934 1700.58284313 1699.42373534 1700.58797659 1701.72709045 C1700.62849004 1721.30875027 1699.67208518 1740.83938666 1696.51630211 1760.19113445 C1696.34598473 1761.25928387 1696.17566734 1762.32743328 1696.00018883 1763.42795086 C1688.68406821 1808.01611711 1673.22274014 1851.2589026 1648.32880211 1889.12863445 C1647.51856733 1890.38232171 1646.70867008 1891.63622718 1645.89911461 1892.8903532 C1637.89719656 1905.18399066 1629.35882978 1917.39226681 1619.32880211 1928.12863445 C1606.21423131 1921.57134905 1596.68341878 1910.04642612 1591.26630211 1896.50363445 C1590.32880211 1893.12863445 1590.32880211 1893.12863445 1590.32880211 1889.12863445 C1589.00880211 1889.12863445 1587.68880211 1889.12863445 1586.32880211 1889.12863445 C1586.28755211 1890.03613445 1586.24630211 1890.94363445 1586.20380211 1891.87863445 C1584.25240711 1905.11069643 1573.72700004 1917.35855249 1563.32880211 1925.12863445 C1556.62744116 1929.66757541 1549.62008982 1934.12863445 1541.32880211 1934.12863445 C1541.32880211 1935.44863445 1541.32880211 1936.76863445 1541.32880211 1938.12863445 C1542.23630211 1938.16988445 1543.14380211 1938.21113445 1544.07880211 1938.25363445 C1556.68491204 1940.11271733 1567.99776099 1949.77278113 1575.92255211 1959.23019695 C1577.79243006 1961.75453218 1579.10165327 1964.24122541 1580.32880211 1967.12863445 C1567.62286054 1979.12869038 1553.15153538 1988.95493363 1538.32880211 1998.12863445 C1537.65268883 1998.54854656 1536.97657555 1998.96845867 1536.27997398 1999.40109539 C1517.26300545 2011.12426031 1497.32900723 2020.54056034 1476.32880211 2028.12863445 C1475.35684898 2028.48054852 1474.38489586 2028.83246258 1473.38348961 2029.1950407 C1454.1260561 2036.07995427 1434.5893477 2041.14522267 1414.39130211 2044.37863445 C1413.46591637 2044.52977703 1412.54053062 2044.68091961 1411.58710289 2044.83664227 C1391.31237918 2047.85013081 1370.81211504 2048.42610047 1350.35068989 2048.38031673 C1347.94205787 2048.38240934 1345.53342649 2048.3853765 1343.12479648 2048.38912547 C1337.92285421 2048.39524353 1332.72095016 2048.39530592 1327.51900881 2048.38975838 C1319.73153231 2048.38149142 1311.94408926 2048.38495883 1304.1566119 2048.39052366 C1290.87697482 2048.39967757 1277.59735313 2048.39944627 1264.31771469 2048.39396191 C1250.87504579 2048.38844416 1237.432387 2048.3873109 1223.98971748 2048.39143658 C1222.71240565 2048.39182409 1222.71240565 2048.39182409 1221.40928954 2048.39221944 C1217.9406491 2048.39328608 1214.47200866 2048.39438351 1211.00336823 2048.39551999 C1178.75386226 2048.40607891 1146.50436306 2048.40682482 1114.25485611 2048.40122509 C1112.82367083 2048.4009767 1112.82367083 2048.4009767 1111.36357273 2048.4007233 C1110.40790941 2048.40055744 1109.45224609 2048.40039158 1108.46762328 2048.4002207 C1079.32269113 2048.3951692 1050.17776178 2048.39387393 1021.03282928 2048.39626598 C1019.07920929 2048.39642094 1017.12558929 2048.39657526 1015.1719693 2048.39672892 C1007.32068521 2048.39734989 999.46940112 2048.39798722 991.61811704 2048.39864845 C969.67225026 2048.40048223 947.72638347 2048.4016236 925.78051662 2048.40222073 C924.78125656 2048.40224802 923.7819965 2048.40227531 922.75245583 2048.40230343 C890.92425089 2048.40312166 859.09604693 2048.40086985 827.26784229 2048.39652157 C826.23592036 2048.39638107 825.20399843 2048.39624057 824.14080614 2048.39609582 C807.38431156 2048.39380607 790.62781701 2048.39136708 773.87132247 2048.38891547 C707.41549593 2048.37920284 640.95967744 2048.37965435 574.50385094 2048.38937664 C557.75450676 2048.39181913 541.00516257 2048.39424127 524.25581837 2048.39652157 C522.70873083 2048.39673291 522.70873083 2048.39673291 521.130389 2048.39694853 C489.33369069 2048.40126241 457.53699305 2048.40308916 425.74029446 2048.40222073 C424.24253291 2048.40217997 424.24253291 2048.40217997 422.71451355 2048.4021384 C400.79341842 2048.40151338 378.87232335 2048.40024597 356.95122828 2048.39839972 C349.10738626 2048.39774147 341.26354424 2048.3971153 333.41970222 2048.3964983 C331.46845447 2048.39634352 329.51720672 2048.39618606 327.56595897 2048.39602591 C298.42996715 2048.39364105 269.29397849 2048.39566707 240.15798707 2048.4007233 C238.7266776 2048.40097169 238.7266776 2048.40097169 237.26645279 2048.40122509 C236.31401569 2048.40139045 235.36157859 2048.40155582 234.38027976 2048.4017262 C202.22266859 2048.40724843 170.06506552 2048.40520165 137.9074555 2048.3946636 C134.45046556 2048.39355895 130.99347562 2048.39248554 127.53648567 2048.39143658 C126.68811157 2048.39117616 125.83973747 2048.39091575 124.96565506 2048.39064744 C111.56198277 2048.38671109 98.15832061 2048.38944014 84.75464923 2048.39497459 C71.55763248 2048.40028049 58.36063271 2048.39838019 45.1636181 2048.38894641 C37.43897815 2048.38363433 29.71438492 2048.38367615 21.98974727 2048.39190961 C16.23482982 2048.39742254 10.47995837 2048.39236139 4.72504703 2048.38339706 C2.42634937 2048.38139909 0.12764564 2048.38267121 -2.17104715 2048.38780893 C-22.72503971 2048.43045218 -43.26641157 2047.48204952 -63.54619789 2043.94113445 C-64.79175453 2043.72682781 -66.03731117 2043.51252117 -67.32061195 2043.29172039 C-95.00300169 2038.3381771 -122.16320092 2030.11975925 -147.61065102 2018.09494305 C-149.66763957 2017.13030315 -151.73695654 2016.19864214 -153.81182289 2015.2731657 C-169.82806575 2008.05158972 -185.36764131 1999.34037759 -199.67119789 1989.12863445 C-200.36922523 1988.63137859 -201.06725258 1988.13412273 -201.78643227 1987.62179852 C-211.98772423 1980.32237782 -221.84442554 1972.76806434 -231.21319008 1964.42355633 C-232.49303066 1963.28687273 -233.78798697 1962.16725615 -235.08526039 1961.05050945 C-241.08989766 1955.8093484 -246.71341392 1950.18881792 -252.35869789 1944.56613445 C-253.57142372 1943.3604179 -253.57142372 1943.3604179 -254.80864906 1942.13034344 C-259.63504604 1937.29104298 -264.24796108 1932.33825435 -268.67119789 1927.12863445 C-269.17755775 1926.53961346 -269.68391762 1925.95059246 -270.20562172 1925.34372234 C-279.67892465 1914.24607236 -287.85319059 1902.43614551 -295.67119789 1890.12863445 C-296.19600746 1889.30347332 -296.72081703 1888.47831219 -297.26152992 1887.62814617 C-334.09921207 1829.18588242 -347.86056908 1763.79063731 -347.80262566 1695.46860981 C-347.80427777 1693.08117865 -347.80636518 1690.69374777 -347.80884576 1688.30631733 C-347.81323313 1683.11974283 -347.81455157 1677.93317706 -347.81311741 1672.7466013 C-347.8109862 1664.98183341 -347.81462378 1657.21707531 -347.81933219 1649.45230893 C-347.82718627 1636.21494834 -347.83029326 1622.97759044 -347.83077812 1609.7402277 C-347.83128113 1596.33044141 -347.83393432 1582.92065814 -347.83918571 1569.51087284 C-347.83968091 1568.23900752 -347.83968091 1568.23900752 -347.84018612 1566.94144796 C-347.84153617 1563.4878374 -347.84289885 1560.03422685 -347.84427822 1556.5806163 C-347.86056594 1515.72746324 -347.86696512 1474.87431077 -347.87172609 1434.02115502 C-347.87411104 1413.67050319 -347.87781488 1393.31985169 -347.88176319 1372.96920012 C-347.89442695 1307.65895495 -347.90521044 1242.3487098 -347.90860365 1177.03846342 C-347.90876589 1173.9180583 -347.90893145 1170.79765318 -347.90909803 1167.67724806 C-347.90943183 1161.41944655 -347.90976231 1155.16164504 -347.91009259 1148.90384352 C-347.91047949 1141.57780746 -347.91086909 1134.25177139 -347.91126366 1126.92573533 C-347.91137608 1124.82898118 -347.91148749 1122.73222702 -347.91159791 1120.63547287 C-347.91514613 1053.31776014 -347.93021998 986.0000581 -347.95353565 918.68234945 C-347.97028626 870.29992945 -347.98575609 821.91751147 -347.99027061 773.53508854 C-347.9903641 772.5392552 -347.99045759 771.54342186 -347.99055391 770.51741175 C-347.99257334 748.65203987 -347.99372906 726.78666803 -347.99408249 704.92129606 C-347.99421865 697.09651575 -347.99442764 689.27173544 -347.99467574 681.44695514 C-347.9947373 679.50044636 -347.99479562 677.55393759 -347.99485069 675.60742882 C-347.99576904 644.6405539 -348.00571951 613.67369016 -348.02030818 582.70681891 C-348.03495222 551.49741647 -348.03994868 520.28802773 -348.03188864 489.07862246 C-348.03077342 484.75628672 -348.02976271 480.43395096 -348.02881432 476.11161518 C-348.02862435 475.26439987 -348.02843438 474.41718456 -348.02823866 473.54429606 C-348.02551577 460.18410796 -348.03281221 446.82394534 -348.04438768 433.46376277 C-348.05558631 420.29398238 -348.05590238 407.12423764 -348.0450175 393.95445663 C-348.03949505 386.9232027 -348.03852796 379.89202923 -348.05152622 372.86078294 C-348.1802117 296.55697611 -339.20750115 222.00754653 -295.67119789 157.12863445 C-295.21938148 156.44607586 -294.76756508 155.76351727 -294.30205727 155.06027508 C-276.72247298 128.5802579 -255.50307578 102.03793124 -230.40166664 82.32394695 C-228.16113591 80.52254743 -226.01939798 78.67262387 -223.87432289 76.76144695 C-219.8334439 73.20736946 -215.61002025 70.00589766 -211.23369789 66.87863445 C-210.45510414 66.32071209 -209.67651039 65.76278973 -208.87432289 65.18796062 C-146.78595574 21.03525769 -75.84013538 -0.07419358 0 0 Z M20.32880211 395.12863445 C19.67311587 404.23018138 19.02090619 413.33196901 18.37304497 422.43407631 C18.07205983 426.66124277 17.7699104 430.88831908 17.46503258 435.11520672 C17.17045658 439.19988019 16.87902727 443.28476744 16.58971214 447.36981678 C16.47919132 448.92267597 16.36756662 450.47545703 16.25478172 452.02815342 C15.36977418 463.56641932 15.36977418 463.56641932 15.32880211 475.12863445 C16.88064542 476.68047776 18.57773282 476.56819896 20.72723961 476.8903532 C21.66769127 477.0364201 22.60814293 477.18248699 23.57709312 477.33298016 C25.12481407 477.57214153 25.12481407 477.57214153 26.70380211 477.81613445 C53.52453758 482.15261454 79.95039098 487.84946073 104.57880211 499.56613445 C105.68546227 500.09150799 106.79212242 500.61688152 107.93231773 501.15817547 C115.31608001 504.80253845 121.81233644 509.11101017 128.32880211 514.12863445 C129.34973961 514.87371258 130.37067711 515.6187907 131.42255211 516.38644695 C143.30190573 525.60451681 151.58566988 537.82063276 158.32880211 551.12863445 C158.66508629 551.78251141 159.00137047 552.43638836 159.34784508 553.11007977 C183.52517112 600.96505953 180.81410942 664.08508899 181.87540245 716.56172466 C181.89668618 717.60073339 181.91796991 718.63974211 181.9398986 719.71023595 C182.43783375 744.60942981 182.47252899 769.50574493 182.45952678 794.40904462 C182.45745418 800.31478153 182.46018695 806.22051606 182.46267414 812.12625241 C182.46786901 824.90777347 182.46751223 837.68928945 182.46459523 850.47081096 C182.4620545 861.66220246 182.46143449 872.85359213 182.46261787 884.04498386 C182.46273245 885.1693976 182.46273245 885.1693976 182.46284934 886.31652676 C182.46316081 889.36141695 182.46347923 892.40630715 182.46380911 895.45119735 C182.46685178 923.87739351 182.46412119 952.30358649 182.45871221 980.72978217 C182.45397188 1005.83237982 182.45439027 1030.93497239 182.4591732 1056.03757 C182.46456133 1084.40952505 182.4666324 1112.78147729 182.46356094 1141.15343279 C182.46324035 1144.19414675 182.4629275 1147.23486072 182.46261787 1150.27557468 C182.4625388 1151.02397009 182.46245972 1151.7723655 182.46237825 1152.54343955 C182.46125414 1163.70658964 182.4625457 1174.86973766 182.46509743 1186.03288746 C182.46799426 1198.76723358 182.46716396 1211.50157394 182.46181668 1224.23591936 C182.4591891 1230.70177589 182.45807758 1237.16762441 182.46146584 1243.63348103 C182.47397918 1269.78824311 182.34055497 1295.93311435 181.87540245 1322.0841856 C181.8554496 1323.22512112 181.83549675 1324.36605664 181.81493928 1325.54156596 C178.9029519 1488.1927774 178.9029519 1488.1927774 137.14911461 1529.2731657 C106.06878643 1558.19667395 56.87019919 1565.02203759 16.32880211 1570.12863445 C16.92997183 1584.92452877 17.89775201 1599.67317714 19.0582943 1614.43527508 C19.33174735 1617.91612512 19.60014754 1621.39733898 19.86786461 1624.87863445 C20.04205295 1627.12344871 20.21652173 1629.36824122 20.39130211 1631.61300945 C20.47049889 1632.63811626 20.54969566 1633.66322308 20.63129234 1634.71939373 C21.09062062 1640.53799372 21.65186324 1646.33122218 22.32880211 1652.12863445 C23.08045143 1652.09549145 23.83210075 1652.06234844 24.60652733 1652.0282011 C32.13100219 1651.6977946 39.65576633 1651.37510584 47.18084621 1651.05880451 C51.03835075 1650.89645006 54.89574147 1650.7322252 58.75287437 1650.56125164 C124.79690833 1647.64293612 190.84617937 1646.78861394 256.94709057 1646.87149608 C263.66679602 1646.87904856 270.38644253 1646.87629798 277.10614586 1646.86789227 C343.05003416 1646.78755593 408.89157038 1647.97268728 474.77442741 1650.87826252 C482.2911923 1651.20473789 489.80666012 1651.16185988 497.32880211 1651.12863445 C498.11555235 1641.89680968 498.89819907 1632.66464864 499.67571068 1623.43204117 C500.03692536 1619.14429178 500.3995151 1614.85666822 500.76532555 1610.56930828 C501.11876226 1606.42635816 501.46848475 1602.28310929 501.81571007 1598.13963413 C501.94835665 1596.56441437 502.08230712 1594.98930381 502.21762657 1593.41431141 C502.88457556 1585.64219859 503.51391627 1577.93813817 503.32880211 1570.12863445 C502.09653893 1569.9177116 500.86427574 1569.70678875 499.59467125 1569.4894743 C409.94624172 1554.09150125 409.94624172 1554.09150125 381.32880211 1531.12863445 C379.8457357 1529.9394743 379.8457357 1529.9394743 378.33270836 1528.7262907 C348.3725594 1503.08771663 342.9726185 1459.23565573 340.02411461 1422.31320477 C338.1608233 1397.00139948 337.20657734 1371.66924872 336.77913475 1346.29562664 C336.75824978 1345.09682794 336.73736481 1343.89802924 336.71584696 1342.66290331 C336.25614402 1315.89877182 336.1563367 1289.1369579 336.1281935 1262.3694284 C336.1208297 1256.25695235 336.10905176 1250.1444858 336.09747547 1244.03201654 C336.07404058 1231.58242565 336.05468494 1219.13283186 336.03787613 1206.6832304 C336.0212833 1194.40407193 336.00274091 1182.12491878 335.98174286 1169.84576702 C335.98042525 1169.07464859 335.97910764 1168.30353016 335.97775011 1167.50904451 C335.97104557 1163.59096104 335.96430762 1159.67287763 335.95755685 1155.75479424 C335.91013041 1128.19435428 335.86685189 1100.63390927 335.82611656 1073.07345867 C335.7865987 1046.34331172 335.74513731 1019.61316891 335.70111656 992.88302898 C335.69975403 992.05521719 335.6983915 991.22740541 335.69698768 990.37450841 C335.68329918 982.0592665 335.66957193 973.74402466 335.65581634 965.42878286 C335.62780982 948.49833011 335.6000614 931.56787694 335.57246971 914.63742352 C335.57120151 913.85944344 335.56993331 913.08146337 335.56862668 912.27990815 C335.48435128 860.56282367 335.40610639 808.84572977 335.32880211 757.12863445 C335.98880211 757.12863445 336.64880211 757.12863445 337.32880211 757.12863445 C337.55438805 757.66359539 337.77997398 758.19855633 338.01239586 758.7497282 C339.75529269 761.89935482 342.04102739 764.48845868 344.39130211 767.19113445 C345.38941213 768.35458464 346.38679738 769.51865696 347.38348961 770.68332195 C347.88074547 771.26307781 348.37800133 771.84283367 348.89032555 772.44015789 C354.42090597 778.93192541 359.72826849 785.61297995 365.04364586 792.2809782 C367.33645959 795.13817685 369.64760021 797.97964137 371.96234703 800.81906414 C376.61646083 806.52825478 381.23796218 812.25656883 385.76630211 818.06613445 C390.44662961 824.06783453 395.27332277 829.94017222 400.12836266 835.80099773 C404.30897169 840.85904687 408.3876252 845.9861591 412.41986656 851.16281414 C416.18207783 855.97855597 420.07912679 860.66663878 424.00848961 865.34738445 C426.7444264 868.62682383 429.40911469 871.9578308 432.06708336 875.30050945 C434.96706195 878.92673485 437.89776869 882.52749565 440.82880211 886.12863445 C444.34463214 890.44952127 447.85604683 894.77297529 451.32880211 899.12863445 C456.38319125 905.46516424 461.50778069 911.74472223 466.6232357 918.03195477 C469.89800829 922.05768436 473.16952452 926.08606023 476.44159508 930.11398602 C479.21146 933.52343641 481.98221935 936.93215324 484.75458336 940.33957195 C498.59492887 957.35339881 498.59492887 957.35339881 504.80145836 965.28488445 C511.40665498 973.72572954 518.12904471 982.06314843 524.89960289 990.37179852 C528.91352601 995.30589328 532.88168687 1000.2757064 536.80145836 1005.28488445 C541.75407436 1011.61373013 546.74815712 1017.90186081 551.82880211 1024.12863445 C558.21028316 1031.95212543 564.45079194 1039.87935349 570.66278648 1047.83761883 C576.5261031 1055.34437602 582.46347473 1062.78245732 588.4879818 1070.16061687 C592.02969085 1074.50577892 595.51032344 1078.8928695 598.95380211 1083.31613445 C602.93474373 1088.42646208 607.05949231 1093.38702316 611.27460289 1098.30514812 C614.85812159 1102.51102713 618.22585236 1106.85274078 621.56171227 1111.25607586 C624.51478499 1115.13031188 627.59653757 1118.86770287 630.76630211 1122.56613445 C635.00117234 1127.50929379 639.06732299 1132.55690549 643.0673275 1137.69137859 C646.5621537 1142.17083623 650.11609908 1146.59825642 653.70380211 1151.00363445 C654.24617516 1151.66967693 654.7885482 1152.33571941 655.3473568 1153.021945 C657.00696405 1155.05822331 658.6676692 1157.09360058 660.32880211 1159.12863445 C662.53857367 1161.83579891 664.7471599 1164.54391846 666.95380211 1167.25363445 C667.49432213 1167.91717937 668.03484215 1168.5807243 668.59174156 1169.26437664 C672.07703556 1173.55477935 675.49826121 1177.89010299 678.89130211 1182.25363445 C682.5797007 1186.99241608 686.39446978 1191.59222432 690.32880211 1196.12863445 C694.74222958 1201.21745651 698.9741661 1206.41091329 703.10736656 1211.72922039 C706.68470216 1216.32801066 710.33475902 1220.86290486 714.01630211 1225.37863445 C718.09745859 1230.38515228 722.15851491 1235.40549515 726.18427086 1240.45675945 C728.4274394 1243.25152681 730.68931441 1246.03038502 732.95355797 1248.80807781 C737.61035844 1254.52112928 742.23507685 1260.25286714 746.76630211 1266.06613445 C751.44600016 1272.06702737 756.27238693 1277.93826844 761.12616539 1283.79880047 C765.33141297 1288.88750828 769.44018167 1294.04212679 773.50116539 1299.24631023 C776.89995722 1303.59791718 780.37132592 1307.88408979 783.87958336 1312.1481657 C791.04392897 1320.86650016 798.15125405 1329.63217415 805.18427086 1338.45675945 C807.4274394 1341.25152681 809.68931441 1344.03038502 811.95355797 1346.80807781 C816.61035975 1352.52113089 821.23501462 1358.25291432 825.76630211 1364.06613445 C830.52119048 1370.16223534 835.41910176 1376.13339432 840.34589195 1382.0910368 C844.01252979 1386.52555691 847.63975327 1390.9867279 851.21942711 1395.4919157 C854.00405829 1398.97270468 856.82448838 1402.42387491 859.64130211 1405.87863445 C863.80135569 1410.98238448 867.90852837 1416.12101301 871.95380211 1421.31613445 C875.48091084 1425.84215505 879.09848243 1430.26867483 882.82880211 1434.62863445 C887.03732841 1439.5475171 891.0796259 1444.57105001 895.05658531 1449.67843914 C898.65401342 1454.29140916 902.32054264 1458.84413994 906.01630211 1463.37863445 C906.57156578 1464.06014568 907.12682945 1464.74165691 907.6989193 1465.44382 C908.76578499 1466.75316967 909.83267829 1468.06249684 910.89960289 1469.37179852 C915.35455137 1474.84802149 919.74214619 1480.37480105 924.08539391 1485.93991375 C931.00915994 1494.80060488 938.15505354 1503.46986193 945.32880211 1512.12863445 C952.38231489 1520.64228142 959.41193319 1529.16232176 966.20966148 1537.88229656 C970.83175203 1543.80159276 975.57973557 1549.61649824 980.32489586 1555.4372282 C982.7599639 1558.42506504 985.17617624 1561.42710478 987.57880211 1564.44113445 C991.78114276 1569.70947767 996.05381648 1574.91918553 1000.32880211 1580.12863445 C1006.08100981 1587.1461152 1011.81156367 1594.18083949 1017.53095055 1601.22507 C1020.6229309 1605.03228516 1023.72052048 1608.83470247 1026.82880211 1612.62863445 C1028.328952 1614.46184514 1029.82893667 1616.29519103 1031.32880211 1618.12863445 C1031.81848473 1618.72643719 1032.30816734 1619.32423992 1032.81268883 1619.94015789 C1052.41211599 1643.88375727 1052.41211599 1643.88375727 1055.59104443 1649.26556301 C1057.21432968 1651.37485455 1057.21432968 1651.37485455 1059.94684696 1651.62082577 C1061.53555717 1651.61529501 1061.53555717 1651.61529501 1063.15636253 1651.60965252 C1064.37212471 1651.61515118 1065.58788689 1651.62064983 1066.84049034 1651.62631512 C1068.18970692 1651.61215859 1069.53891952 1651.59761936 1070.88812828 1651.58273602 C1072.30727163 1651.58160786 1073.72641732 1651.58224077 1075.14555931 1651.58450603 C1079.00083448 1651.58565539 1082.85561353 1651.56211082 1086.71077323 1651.53421021 C1090.73864154 1651.50923313 1094.76652077 1651.50685748 1098.79445457 1651.50210857 C1106.42306392 1651.48966788 1114.05144442 1651.45683162 1121.67995292 1651.41671062 C1130.36422639 1651.3720268 1139.04851068 1651.35001442 1147.73287046 1651.32992887 C1165.59831083 1651.28809984 1183.46353808 1651.21772667 1201.32880211 1651.12863445 C1201.32951425 1650.33248229 1201.3302264 1649.53633012 1201.33096012 1648.71605213 C1201.40860071 1561.95463077 1201.48744063 1475.19321054 1201.57246971 1388.43179607 C1201.57437723 1386.484897 1201.57437723 1386.484897 1201.57632329 1384.49866663 C1201.6033001 1356.97203093 1201.63046853 1329.44539541 1201.65786684 1301.91876013 C1201.67163225 1288.08867364 1201.68535984 1274.25858711 1201.69905168 1260.42850055 C1201.7011171 1258.3424454 1201.7031836 1256.25639025 1201.70525015 1254.1703351 C1201.73701588 1222.09513641 1201.76797698 1190.0199372 1201.79657555 1157.94473553 C1201.79749604 1156.91236882 1201.79749604 1156.91236882 1201.79843513 1155.85914622 C1201.80832253 1144.76449991 1201.81814163 1133.66985354 1201.82795166 1122.57520716 C1201.85625141 1090.57078146 1201.88506655 1058.56635658 1201.91720486 1026.56193447 C1201.91852951 1025.242723 1201.91985416 1023.92351153 1201.92121895 1022.56432396 C1201.93447964 1009.38621614 1201.94793118 996.20810853 1201.96162322 983.03000116 C1201.96836085 976.54386396 1201.97506274 970.05772673 1201.98174286 963.57158947 C1201.98305859 962.29514189 1201.98437431 961.01869431 1201.98572991 959.70356649 C1202.00673818 939.23361323 1202.02446154 918.7636584 1202.04092742 898.29370103 C1202.05759 877.66767587 1202.0777824 857.04165648 1202.10147052 836.41563818 C1202.1154048 824.19174248 1202.12674024 811.96785117 1202.13416649 799.74394975 C1202.13941956 791.53967822 1202.14825413 783.33541519 1202.15978985 775.13115012 C1202.16623147 770.48133351 1202.17131834 765.83152887 1202.1719641 761.18170753 C1202.17579046 741.62012215 1202.35255177 722.07192873 1202.80036068 702.51501369 C1202.82138394 701.59204864 1202.8424072 700.66908359 1202.86406754 699.7181499 C1203.20911003 684.86089108 1203.75319388 670.0270398 1204.64130211 655.19113445 C1204.70505028 654.09748577 1204.76879845 653.00383709 1204.83447838 651.87704754 C1210.56230391 554.62469127 1210.56230391 554.62469127 1238.32880211 520.12863445 C1238.8689193 519.42480633 1239.40903648 518.7209782 1239.96552086 517.99582195 C1263.05614593 489.48197501 1306.4221214 482.81944223 1340.39984703 477.68893719 C1341.66417564 477.49759197 1342.92850426 477.30624676 1344.23114586 477.1091032 C1345.92485313 476.86003216 1345.92485313 476.86003216 1347.65277672 476.60592937 C1350.29047618 476.26580338 1350.29047618 476.26580338 1352.32880211 475.12863445 C1351.68718727 460.79703479 1350.90855361 446.47744601 1350.02655602 432.15866375 C1349.82664036 428.90596199 1349.63035681 425.65305346 1349.43427086 422.40011883 C1349.30558137 420.29528786 1349.17668284 418.19046965 1349.04755211 416.0856657 C1348.96156761 414.65417942 1348.96156761 414.65417942 1348.87384605 413.19377422 C1348.49821702 407.15501767 1347.97462132 401.14448112 1347.32880211 395.12863445 C1338.37166248 394.9678087 1329.46854478 395.41825865 1320.52837181 395.89046383 C1297.30441651 397.10796209 1274.07297984 398.02652054 1250.82880211 398.75363445 C1249.27288605 398.80247091 1249.27288605 398.80247091 1247.68553734 398.85229397 C1164.19898543 401.44193692 1080.36208568 401.47265516 976.32880211 398.12863445 C975.48321236 398.09779514 974.6376226 398.06695583 973.76640892 398.035182 C957.02251232 397.42324908 940.27934319 396.7914158 923.53876305 396.09421062 C922.75670053 396.06184527 921.97463802 396.02947992 921.16887665 395.9961338 C917.52847412 395.84541186 913.88819039 395.69262508 910.24808311 395.53493023 C899.28956045 394.96189456 899.28956045 394.96189456 888.32880211 395.12863445 C886.13043314 397.32700343 886.82464774 402.37827672 886.64520836 405.4450407 C886.58536766 406.40069927 886.52552696 407.35635784 886.46387291 408.34097576 C886.33567478 410.39268531 886.209477 412.44452062 886.08505821 414.49646282 C885.76425473 419.78590535 885.42996223 425.07448367 885.09442711 430.36300945 C885.02911293 431.39569454 884.96379875 432.42837963 884.89650536 433.49235821 C884.34851813 442.05203287 883.69127562 450.59680572 882.88764 459.13669109 C882.39787231 464.49250377 882.25865957 469.74924144 882.32880211 475.12863445 C883.56291832 475.30870037 883.56291832 475.30870037 884.82196617 475.49240398 C986.22081034 490.43376403 986.22081034 490.43376403 1014.03192711 525.26144695 C1042.90763782 564.67288995 1044.17603537 618.79591423 1046.45380211 665.75363445 C1046.51171928 666.92647991 1046.51171928 666.92647991 1046.5708065 668.12301922 C1048.2646188 703.21031791 1048.47633521 738.31359364 1048.44486773 773.43394649 C1048.4404711 779.61532286 1048.44201605 785.79669848 1048.44277 791.97807598 C1048.44328951 802.63913481 1048.44023914 813.3001868 1048.43453217 823.96124363 C1048.42857516 835.11847685 1048.42475825 846.27570759 1048.42367935 857.43294239 C1048.42361061 858.13175302 1048.42354187 858.83056364 1048.42347105 859.55055034 C1048.42313263 863.10076368 1048.42283128 866.65097702 1048.42254417 870.20119036 C1048.42045465 895.2198941 1048.41374804 920.23859463 1048.40424156 945.25729656 C1048.39502818 969.53301254 1048.38795884 993.80872762 1048.38373375 1018.084445 C1048.38360222 1018.83530777 1048.3834707 1019.58617054 1048.38333519 1020.35978673 C1048.38201644 1027.90160191 1048.38074066 1035.4434171 1048.37949633 1042.9852323 C1048.37696144 1058.34301537 1048.37414019 1073.70079837 1048.37114525 1089.05858135 C1048.37100796 1089.76440444 1048.37087067 1090.47022753 1048.37072922 1091.19743919 C1048.36155892 1138.17450564 1048.34569635 1185.15157021 1048.32880211 1232.12863445 C1046.57547086 1230.0628414 1044.82299302 1227.99633442 1043.07098961 1225.9294157 C1042.57880943 1225.34970013 1042.08662926 1224.76998455 1041.57953453 1224.17270184 C1038.16208545 1220.13920136 1034.82741464 1216.04930201 1031.54364586 1211.9059782 C1028.72780319 1208.37500089 1025.87068894 1204.87846899 1023.01630211 1201.37863445 C1018.82077062 1196.22907717 1014.66948647 1191.04936676 1010.57880211 1185.81613445 C1006.69841462 1180.85283206 1002.75863752 1175.94636522 998.75458336 1171.08175945 C995.86825997 1167.56797446 993.0049678 1164.03588677 990.14130211 1160.50363445 C985.52540944 1154.81187746 980.87412313 1149.15077975 976.20380211 1143.50363445 C971.47891882 1137.78834294 966.8536689 1132.00848596 962.30097008 1126.15548992 C958.79990442 1121.67582555 955.15077 1117.34000069 951.45306969 1113.02218914 C948.14027916 1109.13558963 944.96210665 1105.16090627 941.82880211 1101.12863445 C937.75423265 1095.88585213 933.54764234 1090.78241084 929.23627281 1085.73312664 C925.94514286 1081.87419604 922.75907285 1077.94737785 919.61005211 1073.97238445 C916.61762998 1070.24210481 913.56509364 1066.56287979 910.51630211 1062.87863445 C906.16905329 1057.62279851 901.88577802 1052.3293464 897.70380211 1046.94113445 C893.47061646 1041.49042928 889.04230303 1036.2388546 884.52533531 1031.021945 C881.32345143 1027.31573699 878.25622248 1023.54363952 875.28583336 1019.6481657 C872.60688841 1016.1992246 869.84079301 1012.8237169 867.07880211 1009.44113445 C862.91443527 1004.34011237 858.80614777 999.20372025 854.76630211 994.00363445 C850.60089392 988.6514636 846.24807345 983.49400301 841.80463219 978.37155437 C837.93248457 973.88660273 834.25295957 969.27838897 830.62055016 964.59836102 C826.87692875 959.78886135 823.02558679 955.07504556 819.14130211 950.37863445 C814.8640927 945.20693857 810.61338827 940.02005272 806.43817711 934.7653532 C804.20996765 931.98009138 801.95894681 929.21437892 799.70502281 926.44992352 C794.94476141 920.61125679 790.21824331 914.75139405 785.57880211 908.81613445 C781.70181368 903.85717971 777.76457345 898.95566174 773.76630211 894.0934782 C764.35909249 882.65105497 755.10918177 871.09617794 745.99481773 859.41965008 C739.53125127 851.14439784 732.96780712 842.95841955 726.33270836 834.8200407 C723.89764032 831.83220387 721.48142798 828.83016412 719.07880211 825.81613445 C715.7083654 821.59082606 712.29100419 817.40575826 708.86395836 813.2262907 C705.36678932 808.95787224 701.89022303 804.67269887 698.41254234 800.38840008 C695.60969053 796.93548804 692.80461316 793.48446375 689.99286461 790.0387907 C684.83802358 783.71690221 679.71710423 777.37603889 674.70380211 770.94113445 C670.74005459 765.85511245 666.63890467 760.9122996 662.44672203 756.01364422 C658.73071346 751.65188792 655.18848591 747.17183649 651.67133141 742.64914227 C647.90740758 737.82567954 644.03997387 733.09363272 640.14130211 728.37863445 C634.29697081 721.30897975 628.51335102 714.2001898 622.86005211 706.9762907 C616.32633151 698.62864219 609.68798183 690.37400032 602.98602867 682.16086102 C600.26218393 678.82066013 597.54583571 675.47437604 594.82880211 672.12863445 C593.74550555 670.79527124 592.6621722 669.46193792 591.57880211 668.12863445 C589.41213544 665.46196779 587.24546878 662.79530112 585.07880211 660.12863445 C584.54239098 659.46847332 584.00597984 658.80831219 583.45331383 658.12814617 C582.37146099 656.79655995 581.28975493 655.46485446 580.20819664 654.13302898 C577.47841103 650.77196504 574.74599994 647.41309827 572.00848961 644.05832195 C566.43995345 637.22898515 560.92206516 630.367501 555.49677086 623.42380047 C548.41452422 614.37982283 541.10465078 605.51689647 533.82880211 596.62863445 C517.74355441 576.97870732 517.74355441 576.97870732 510.89130211 568.19113445 C506.13629185 562.09512518 501.23850592 556.12387878 496.31171227 550.16623211 C492.64274724 545.72889744 489.01421998 541.2640482 485.43036461 536.7575407 C482.68590181 533.32441159 479.91421885 529.91379777 477.14130211 526.50363445 C476.5870858 525.82180096 476.03286949 525.13996746 475.46185875 524.43747234 C472.64046006 520.96756943 469.81634553 517.49990937 466.98895836 514.03488445 C461.90176817 507.79500995 456.84267336 501.53951273 451.89130211 495.19113445 C446.67295563 488.50476962 441.28322758 481.9663201 435.87958336 475.4294157 C427.96665991 465.85562174 420.14439103 456.2143967 412.49872398 446.42575359 C407.85478231 440.49360677 403.09286667 434.65900661 398.33270836 428.8200407 C395.89764032 425.83220387 393.48142798 422.83016412 391.07880211 419.81613445 C386.87560653 414.54883873 382.63344031 409.31343063 378.32880211 404.12863445 C377.92534474 403.5411011 377.52188738 402.95356775 377.10620403 402.34823036 C374.37877495 398.60460119 374.37877495 398.60460119 370.36774826 396.54156971 C368.02948597 396.38711422 365.79507286 396.45710088 363.45648766 396.60934734 C362.13490607 396.65168389 362.13490607 396.65168389 360.78662586 396.69487572 C357.84395255 396.79706019 354.9060288 396.94968033 351.96552086 397.1012907 C349.86416321 397.18232793 347.76266291 397.25973652 345.66104698 397.33377361 C341.14674254 397.49828222 336.63391439 397.68311533 332.12106895 397.88366985 C321.27669879 398.36196363 310.42804375 398.71960276 299.57929611 399.08228397 C297.09455768 399.16561813 294.60985823 399.25012214 292.12519836 399.33576679 C266.71149183 400.20966793 241.31873721 400.49439215 215.89130211 400.44113445 C214.38832951 400.43848709 214.38832951 400.43848709 212.85499382 400.43578625 C148.62485513 400.31009505 84.48996107 397.924696 20.32880211 395.12863445 Z " fill="#000000" transform="translate(347.67119789123535,-0.12863445281982422)"/>
</svg>
